<mxfile host="Electron" modified="2025-06-30T09:22:24.982Z" agent="Mozilla/5.0 (Windows NT 10.0; Win64; x64) AppleWebKit/537.36 (KHTML, like Gecko) draw.io/22.1.21 Chrome/120.0.6099.109 Electron/28.1.0 Safari/537.36" etag="1Rn5Ar7WLf1IgDal4rqM" version="22.1.21" type="device">
  <diagram name="第 1 页" id="muNnYNmXHgsADD0GqcqU">
    <mxGraphModel dx="3010" dy="1259" grid="1" gridSize="10" guides="1" tooltips="1" connect="1" arrows="1" fold="1" page="1" pageScale="1" pageWidth="827" pageHeight="1169" math="0" shadow="0">
      <root>
        <mxCell id="0" />
        <mxCell id="1" parent="0" />
        <mxCell id="s8eFsOCSGHVcZ1h7DnvA-1" value="&lt;p style=&quot;margin:0px;margin-top:4px;text-align:center;&quot;&gt;&lt;i&gt;&amp;lt;&amp;lt;Interface&amp;gt;&amp;gt;&lt;/i&gt;&lt;br&gt;&lt;b&gt;PropertyResolver&lt;/b&gt;&lt;/p&gt;&lt;hr size=&quot;1&quot;&gt;&lt;p style=&quot;margin:0px;margin-left:4px;&quot;&gt;+ getProperty(String, Class&amp;lt;T&amp;gt;): &amp;lt;T&amp;gt;&lt;br&gt;+ ...&lt;/p&gt;" style="verticalAlign=top;align=left;overflow=fill;fontSize=12;fontFamily=Helvetica;html=1;whiteSpace=wrap;" vertex="1" parent="1">
          <mxGeometry x="825" y="360" width="230" height="80" as="geometry" />
        </mxCell>
        <mxCell id="s8eFsOCSGHVcZ1h7DnvA-2" value="访问属性相关的方法" style="text;html=1;strokeColor=none;fillColor=none;align=center;verticalAlign=middle;whiteSpace=wrap;rounded=0;" vertex="1" parent="1">
          <mxGeometry x="875" y="330" width="130" height="30" as="geometry" />
        </mxCell>
        <mxCell id="s8eFsOCSGHVcZ1h7DnvA-7" style="edgeStyle=orthogonalEdgeStyle;rounded=0;orthogonalLoop=1;jettySize=auto;html=1;exitX=0.5;exitY=0;exitDx=0;exitDy=0;endArrow=block;endFill=0;" edge="1" parent="1" source="s8eFsOCSGHVcZ1h7DnvA-3" target="s8eFsOCSGHVcZ1h7DnvA-1">
          <mxGeometry relative="1" as="geometry" />
        </mxCell>
        <mxCell id="s8eFsOCSGHVcZ1h7DnvA-3" value="&lt;p style=&quot;margin:0px;margin-top:4px;text-align:center;&quot;&gt;&lt;i&gt;&amp;lt;&amp;lt;Interface&amp;gt;&amp;gt;&lt;/i&gt;&lt;br&gt;&lt;b&gt;Environment&lt;/b&gt;&lt;/p&gt;&lt;hr size=&quot;1&quot;&gt;&lt;p style=&quot;margin:0px;margin-left:4px;&quot;&gt;+ getActiveProfiles(): String[]&lt;br&gt;+ getDefaultProfiles(): String[]&lt;/p&gt;&lt;p style=&quot;margin:0px;margin-left:4px;&quot;&gt;+ ...&lt;/p&gt;" style="verticalAlign=top;align=left;overflow=fill;fontSize=12;fontFamily=Helvetica;html=1;whiteSpace=wrap;" vertex="1" parent="1">
          <mxGeometry x="845" y="510" width="190" height="90" as="geometry" />
        </mxCell>
        <mxCell id="s8eFsOCSGHVcZ1h7DnvA-8" style="edgeStyle=orthogonalEdgeStyle;rounded=0;orthogonalLoop=1;jettySize=auto;html=1;exitX=0.5;exitY=0;exitDx=0;exitDy=0;entryX=0.75;entryY=1;entryDx=0;entryDy=0;endArrow=block;endFill=0;" edge="1" parent="1" source="s8eFsOCSGHVcZ1h7DnvA-4" target="s8eFsOCSGHVcZ1h7DnvA-1">
          <mxGeometry relative="1" as="geometry" />
        </mxCell>
        <mxCell id="s8eFsOCSGHVcZ1h7DnvA-12" style="edgeStyle=orthogonalEdgeStyle;rounded=0;orthogonalLoop=1;jettySize=auto;html=1;exitX=0.75;exitY=1;exitDx=0;exitDy=0;entryX=1;entryY=0.5;entryDx=0;entryDy=0;endArrow=diamondThin;endFill=0;" edge="1" parent="1" source="s8eFsOCSGHVcZ1h7DnvA-4" target="s8eFsOCSGHVcZ1h7DnvA-6">
          <mxGeometry relative="1" as="geometry" />
        </mxCell>
        <mxCell id="s8eFsOCSGHVcZ1h7DnvA-4" value="&lt;p style=&quot;margin:0px;margin-top:4px;text-align:center;&quot;&gt;&lt;i&gt;&amp;lt;&amp;lt;Interface&amp;gt;&amp;gt;&lt;/i&gt;&lt;br&gt;&lt;b&gt;ConfigureablePropertyResolver&lt;/b&gt;&lt;/p&gt;&lt;hr size=&quot;1&quot;&gt;&lt;p style=&quot;margin:0px;margin-left:4px;&quot;&gt;+ setConversionService(ConfigurableConversionService): void&lt;br&gt;+ ...&lt;/p&gt;" style="verticalAlign=top;align=left;overflow=fill;fontSize=12;fontFamily=Helvetica;html=1;whiteSpace=wrap;" vertex="1" parent="1">
          <mxGeometry x="1230" y="515" width="350" height="80" as="geometry" />
        </mxCell>
        <mxCell id="s8eFsOCSGHVcZ1h7DnvA-9" style="edgeStyle=orthogonalEdgeStyle;rounded=0;orthogonalLoop=1;jettySize=auto;html=1;exitX=0.5;exitY=0;exitDx=0;exitDy=0;endArrow=block;endFill=0;" edge="1" parent="1" source="s8eFsOCSGHVcZ1h7DnvA-5" target="s8eFsOCSGHVcZ1h7DnvA-3">
          <mxGeometry relative="1" as="geometry" />
        </mxCell>
        <mxCell id="s8eFsOCSGHVcZ1h7DnvA-10" style="edgeStyle=orthogonalEdgeStyle;rounded=0;orthogonalLoop=1;jettySize=auto;html=1;exitX=0.75;exitY=0;exitDx=0;exitDy=0;endArrow=block;endFill=0;" edge="1" parent="1" source="s8eFsOCSGHVcZ1h7DnvA-5" target="s8eFsOCSGHVcZ1h7DnvA-4">
          <mxGeometry relative="1" as="geometry" />
        </mxCell>
        <mxCell id="s8eFsOCSGHVcZ1h7DnvA-5" value="&lt;p style=&quot;margin:0px;margin-top:4px;text-align:center;&quot;&gt;&lt;i&gt;&amp;lt;&amp;lt;Interface&amp;gt;&amp;gt;&lt;/i&gt;&lt;br&gt;&lt;b&gt;ConfigurableEnvironment&lt;/b&gt;&lt;/p&gt;&lt;hr size=&quot;1&quot;&gt;&lt;p style=&quot;margin:0px;margin-left:4px;&quot;&gt;+ setActiveProfile(String[]): void&lt;br&gt;+ setDefaultProfile(String[]): void&lt;/p&gt;&lt;p style=&quot;margin:0px;margin-left:4px;&quot;&gt;+ getSystemProperties(): Map&amp;lt;String, Object&amp;gt;&lt;/p&gt;&lt;p style=&quot;margin:0px;margin-left:4px;&quot;&gt;+ getSystemEnvironment(): Map&amp;lt;String, Object&amp;gt;&lt;/p&gt;&lt;p style=&quot;margin:0px;margin-left:4px;&quot;&gt;+ ...&lt;/p&gt;" style="verticalAlign=top;align=left;overflow=fill;fontSize=12;fontFamily=Helvetica;html=1;whiteSpace=wrap;" vertex="1" parent="1">
          <mxGeometry x="800" y="680" width="280" height="120" as="geometry" />
        </mxCell>
        <mxCell id="s8eFsOCSGHVcZ1h7DnvA-11" style="edgeStyle=orthogonalEdgeStyle;rounded=0;orthogonalLoop=1;jettySize=auto;html=1;exitX=0.5;exitY=0;exitDx=0;exitDy=0;entryX=0.5;entryY=1;entryDx=0;entryDy=0;endArrow=block;endFill=0;dashed=1;" edge="1" parent="1" source="s8eFsOCSGHVcZ1h7DnvA-6" target="s8eFsOCSGHVcZ1h7DnvA-5">
          <mxGeometry relative="1" as="geometry" />
        </mxCell>
        <mxCell id="s8eFsOCSGHVcZ1h7DnvA-6" value="&lt;p style=&quot;margin:0px;margin-top:4px;text-align:center;&quot;&gt;&lt;i&gt;&amp;lt;&amp;lt;Abstract&amp;gt;&amp;gt;&lt;/i&gt;&lt;br&gt;&lt;b&gt;AbstractEnvironment&lt;/b&gt;&lt;/p&gt;&lt;hr size=&quot;1&quot;&gt;&lt;p style=&quot;margin:0px;margin-left:4px;&quot;&gt;- activeProfiles: Set&amp;lt;String&amp;gt;&lt;br&gt;- fdefaultProfiles: Set&amp;lt;String&amp;gt;&lt;/p&gt;&lt;p style=&quot;margin:0px;margin-left:4px;&quot;&gt;- propertySources: MutablePropertySources&lt;/p&gt;&lt;p style=&quot;margin:0px;margin-left:4px;&quot;&gt;- propertyResolver: &lt;b&gt;&lt;u&gt;ConfigurablePropertyResolver&lt;/u&gt;&lt;/b&gt;&lt;/p&gt;&lt;hr size=&quot;1&quot;&gt;&lt;p style=&quot;margin:0px;margin-left:4px;&quot;&gt;+ ...&lt;/p&gt;" style="verticalAlign=top;align=left;overflow=fill;fontSize=12;fontFamily=Helvetica;html=1;whiteSpace=wrap;" vertex="1" parent="1">
          <mxGeometry x="785" y="880" width="310" height="140" as="geometry" />
        </mxCell>
        <mxCell id="s8eFsOCSGHVcZ1h7DnvA-41" style="edgeStyle=orthogonalEdgeStyle;rounded=0;orthogonalLoop=1;jettySize=auto;html=1;exitX=1;exitY=0.5;exitDx=0;exitDy=0;endArrow=diamondThin;endFill=0;" edge="1" parent="1" source="s8eFsOCSGHVcZ1h7DnvA-13" target="s8eFsOCSGHVcZ1h7DnvA-38">
          <mxGeometry relative="1" as="geometry" />
        </mxCell>
        <mxCell id="s8eFsOCSGHVcZ1h7DnvA-13" value="&lt;p style=&quot;margin:0px;margin-top:4px;text-align:center;&quot;&gt;&lt;i&gt;&amp;lt;&amp;lt;Abstract&amp;gt;&amp;gt;&lt;/i&gt;&lt;br&gt;&lt;b&gt;PropertySouce&amp;lt;T&amp;gt;&lt;/b&gt;&lt;/p&gt;&lt;hr size=&quot;1&quot;&gt;&lt;p style=&quot;margin:0px;margin-left:4px;&quot;&gt;+ name: String&lt;br&gt;+ source: &amp;lt;T&amp;gt;&lt;/p&gt;&lt;hr size=&quot;1&quot;&gt;&lt;p style=&quot;margin:0px;margin-left:4px;&quot;&gt;+ getName(): String&lt;br&gt;+ getSouce(): &amp;lt;T&amp;gt;&lt;/p&gt;&lt;p style=&quot;margin:0px;margin-left:4px;&quot;&gt;+ getProperty(String): Object&lt;/p&gt;" style="verticalAlign=top;align=left;overflow=fill;fontSize=12;fontFamily=Helvetica;html=1;whiteSpace=wrap;" vertex="1" parent="1">
          <mxGeometry x="-124" y="1086.5" width="190" height="140" as="geometry" />
        </mxCell>
        <mxCell id="s8eFsOCSGHVcZ1h7DnvA-24" style="edgeStyle=orthogonalEdgeStyle;rounded=0;orthogonalLoop=1;jettySize=auto;html=1;exitX=0.5;exitY=0;exitDx=0;exitDy=0;entryX=0.5;entryY=1;entryDx=0;entryDy=0;endArrow=block;endFill=0;" edge="1" parent="1" source="s8eFsOCSGHVcZ1h7DnvA-14" target="s8eFsOCSGHVcZ1h7DnvA-13">
          <mxGeometry relative="1" as="geometry" />
        </mxCell>
        <mxCell id="s8eFsOCSGHVcZ1h7DnvA-14" value="&lt;p style=&quot;margin:0px;margin-top:4px;text-align:center;&quot;&gt;&lt;i&gt;&amp;lt;&amp;lt;Abstract&amp;gt;&amp;gt;&lt;/i&gt;&lt;br&gt;&lt;b&gt;EnumerablePropertySource&amp;lt;T&amp;gt;&lt;/b&gt;&lt;/p&gt;&lt;hr size=&quot;1&quot;&gt;&lt;p style=&quot;margin:0px;margin-left:4px;&quot;&gt;+ getPropertyNames(): String[]&lt;br&gt;&lt;/p&gt;" style="verticalAlign=top;align=left;overflow=fill;fontSize=12;fontFamily=Helvetica;html=1;whiteSpace=wrap;" vertex="1" parent="1">
          <mxGeometry x="-129" y="1335" width="200" height="70" as="geometry" />
        </mxCell>
        <mxCell id="s8eFsOCSGHVcZ1h7DnvA-15" value="基于 getPropertyNames 抽象方法实现的 containsProperty 快速检查是否包含 name 值，可能会提高效率" style="text;html=1;strokeColor=none;fillColor=none;align=center;verticalAlign=middle;whiteSpace=wrap;rounded=0;" vertex="1" parent="1">
          <mxGeometry x="-449" y="1355" width="320" height="30" as="geometry" />
        </mxCell>
        <mxCell id="s8eFsOCSGHVcZ1h7DnvA-25" style="edgeStyle=orthogonalEdgeStyle;rounded=0;orthogonalLoop=1;jettySize=auto;html=1;exitX=0.5;exitY=0;exitDx=0;exitDy=0;entryX=0.5;entryY=1;entryDx=0;entryDy=0;endArrow=block;endFill=0;" edge="1" parent="1" source="s8eFsOCSGHVcZ1h7DnvA-22" target="s8eFsOCSGHVcZ1h7DnvA-14">
          <mxGeometry relative="1" as="geometry" />
        </mxCell>
        <mxCell id="s8eFsOCSGHVcZ1h7DnvA-22" value="&lt;p style=&quot;margin:0px;margin-top:4px;text-align:center;&quot;&gt;&lt;b&gt;MapPropertySource&lt;/b&gt;&lt;/p&gt;" style="verticalAlign=top;align=left;overflow=fill;fontSize=12;fontFamily=Helvetica;html=1;whiteSpace=wrap;" vertex="1" parent="1">
          <mxGeometry x="-109" y="1580" width="160" height="20" as="geometry" />
        </mxCell>
        <mxCell id="s8eFsOCSGHVcZ1h7DnvA-23" value="基于 Map 实现的 PropertySource，存储键值对" style="text;html=1;strokeColor=none;fillColor=none;align=center;verticalAlign=middle;whiteSpace=wrap;rounded=0;" vertex="1" parent="1">
          <mxGeometry x="-369" y="1575" width="260" height="30" as="geometry" />
        </mxCell>
        <mxCell id="s8eFsOCSGHVcZ1h7DnvA-33" style="edgeStyle=orthogonalEdgeStyle;rounded=0;orthogonalLoop=1;jettySize=auto;html=1;exitX=0.5;exitY=0;exitDx=0;exitDy=0;entryX=0.5;entryY=1;entryDx=0;entryDy=0;endArrow=block;endFill=0;" edge="1" parent="1" source="s8eFsOCSGHVcZ1h7DnvA-26" target="s8eFsOCSGHVcZ1h7DnvA-22">
          <mxGeometry relative="1" as="geometry" />
        </mxCell>
        <mxCell id="s8eFsOCSGHVcZ1h7DnvA-26" value="&lt;p style=&quot;margin:0px;margin-top:4px;text-align:center;&quot;&gt;&lt;b&gt;PropertiesPropertySource&lt;/b&gt;&lt;/p&gt;" style="verticalAlign=top;align=left;overflow=fill;fontSize=12;fontFamily=Helvetica;html=1;whiteSpace=wrap;" vertex="1" parent="1">
          <mxGeometry x="-109" y="1760" width="160" height="20" as="geometry" />
        </mxCell>
        <mxCell id="s8eFsOCSGHVcZ1h7DnvA-27" value="从 Properties 对象提取" style="text;html=1;strokeColor=none;fillColor=none;align=center;verticalAlign=middle;whiteSpace=wrap;rounded=0;" vertex="1" parent="1">
          <mxGeometry x="-99" y="1775" width="140" height="30" as="geometry" />
        </mxCell>
        <mxCell id="s8eFsOCSGHVcZ1h7DnvA-34" style="edgeStyle=orthogonalEdgeStyle;rounded=0;orthogonalLoop=1;jettySize=auto;html=1;exitX=0.5;exitY=0;exitDx=0;exitDy=0;entryX=0.75;entryY=1;entryDx=0;entryDy=0;endArrow=block;endFill=0;" edge="1" parent="1" source="s8eFsOCSGHVcZ1h7DnvA-28" target="s8eFsOCSGHVcZ1h7DnvA-22">
          <mxGeometry relative="1" as="geometry" />
        </mxCell>
        <mxCell id="s8eFsOCSGHVcZ1h7DnvA-28" value="&lt;p style=&quot;margin:0px;margin-top:4px;text-align:center;&quot;&gt;&lt;b&gt;SystemEnvironmentPropertySource&lt;/b&gt;&lt;/p&gt;" style="verticalAlign=top;align=left;overflow=fill;fontSize=12;fontFamily=Helvetica;html=1;whiteSpace=wrap;" vertex="1" parent="1">
          <mxGeometry x="61" y="1760" width="220" height="20" as="geometry" />
        </mxCell>
        <mxCell id="s8eFsOCSGHVcZ1h7DnvA-29" value="系统环境变量" style="text;html=1;strokeColor=none;fillColor=none;align=center;verticalAlign=middle;whiteSpace=wrap;rounded=0;" vertex="1" parent="1">
          <mxGeometry x="129.5" y="1775" width="83" height="30" as="geometry" />
        </mxCell>
        <mxCell id="s8eFsOCSGHVcZ1h7DnvA-32" style="edgeStyle=orthogonalEdgeStyle;rounded=0;orthogonalLoop=1;jettySize=auto;html=1;exitX=0.5;exitY=0;exitDx=0;exitDy=0;entryX=0.25;entryY=1;entryDx=0;entryDy=0;endArrow=block;endFill=0;" edge="1" parent="1" source="s8eFsOCSGHVcZ1h7DnvA-30" target="s8eFsOCSGHVcZ1h7DnvA-14">
          <mxGeometry relative="1" as="geometry" />
        </mxCell>
        <mxCell id="s8eFsOCSGHVcZ1h7DnvA-30" value="&lt;p style=&quot;margin:0px;margin-top:4px;text-align:center;&quot;&gt;&lt;i&gt;&amp;lt;&amp;lt;Abstract&amp;gt;&amp;gt;&lt;/i&gt;&lt;br&gt;&lt;b&gt;CommandLinePropertySource&amp;lt;T&amp;gt;&lt;/b&gt;&lt;/p&gt;&lt;hr size=&quot;1&quot;&gt;&lt;p style=&quot;margin:0px;margin-left:4px;&quot;&gt;+ containsOption(String): boolean&lt;br&gt;&lt;/p&gt;&lt;p style=&quot;margin:0px;margin-left:4px;&quot;&gt;+ getOptionValues(String): List&amp;lt;String&amp;gt;&lt;/p&gt;&lt;p style=&quot;margin:0px;margin-left:4px;&quot;&gt;+ getNonOptionArgs(): List&amp;lt;String&amp;gt;&lt;/p&gt;" style="verticalAlign=top;align=left;overflow=fill;fontSize=12;fontFamily=Helvetica;html=1;whiteSpace=wrap;" vertex="1" parent="1">
          <mxGeometry x="-662" y="1580" width="220" height="100" as="geometry" />
        </mxCell>
        <mxCell id="s8eFsOCSGHVcZ1h7DnvA-31" value="命令行传递参数" style="text;html=1;strokeColor=none;fillColor=none;align=center;verticalAlign=middle;whiteSpace=wrap;rounded=0;" vertex="1" parent="1">
          <mxGeometry x="-752" y="1580" width="90" height="30" as="geometry" />
        </mxCell>
        <mxCell id="s8eFsOCSGHVcZ1h7DnvA-36" style="edgeStyle=orthogonalEdgeStyle;rounded=0;orthogonalLoop=1;jettySize=auto;html=1;exitX=0.5;exitY=0;exitDx=0;exitDy=0;endArrow=block;endFill=0;" edge="1" parent="1" source="s8eFsOCSGHVcZ1h7DnvA-35" target="s8eFsOCSGHVcZ1h7DnvA-30">
          <mxGeometry relative="1" as="geometry" />
        </mxCell>
        <mxCell id="s8eFsOCSGHVcZ1h7DnvA-35" value="&lt;p style=&quot;margin:0px;margin-top:4px;text-align:center;&quot;&gt;&lt;b style=&quot;border-color: var(--border-color);&quot;&gt;SimpleCommandLinePropertySource&lt;/b&gt;&lt;br&gt;&lt;/p&gt;" style="verticalAlign=top;align=left;overflow=fill;fontSize=12;fontFamily=Helvetica;html=1;whiteSpace=wrap;" vertex="1" parent="1">
          <mxGeometry x="-668.5" y="1760" width="233" height="20" as="geometry" />
        </mxCell>
        <mxCell id="s8eFsOCSGHVcZ1h7DnvA-40" style="edgeStyle=orthogonalEdgeStyle;rounded=0;orthogonalLoop=1;jettySize=auto;html=1;exitX=1;exitY=0.5;exitDx=0;exitDy=0;entryX=0;entryY=0.5;entryDx=0;entryDy=0;endArrow=diamondThin;endFill=0;" edge="1" parent="1" source="s8eFsOCSGHVcZ1h7DnvA-37" target="s8eFsOCSGHVcZ1h7DnvA-6">
          <mxGeometry relative="1" as="geometry" />
        </mxCell>
        <mxCell id="s8eFsOCSGHVcZ1h7DnvA-37" value="&lt;p style=&quot;margin:0px;margin-top:4px;text-align:center;&quot;&gt;&lt;i&gt;&amp;lt;&amp;lt;Interface&amp;gt;&amp;gt;&lt;/i&gt;&lt;br&gt;&lt;b&gt;PropertySources extend Iterable&amp;lt;&amp;gt;&lt;/b&gt;&lt;/p&gt;&lt;hr size=&quot;1&quot;&gt;&lt;p style=&quot;margin:0px;margin-left:4px;&quot;&gt;+ contains(String): boolean&lt;br&gt;+ get(String): PropertySource&amp;lt;?&amp;gt;&lt;/p&gt;" style="verticalAlign=top;align=left;overflow=fill;fontSize=12;fontFamily=Helvetica;html=1;whiteSpace=wrap;" vertex="1" parent="1">
          <mxGeometry x="308" y="910" width="230" height="80" as="geometry" />
        </mxCell>
        <mxCell id="s8eFsOCSGHVcZ1h7DnvA-39" style="edgeStyle=orthogonalEdgeStyle;rounded=0;orthogonalLoop=1;jettySize=auto;html=1;exitX=0.5;exitY=0;exitDx=0;exitDy=0;entryX=0.5;entryY=1;entryDx=0;entryDy=0;endArrow=block;endFill=0;dashed=1;" edge="1" parent="1" source="s8eFsOCSGHVcZ1h7DnvA-38" target="s8eFsOCSGHVcZ1h7DnvA-37">
          <mxGeometry relative="1" as="geometry" />
        </mxCell>
        <mxCell id="s8eFsOCSGHVcZ1h7DnvA-38" value="&lt;p style=&quot;margin:0px;margin-top:4px;text-align:center;&quot;&gt;&lt;b&gt;MutablePropertySources&lt;/b&gt;&lt;/p&gt;&lt;hr size=&quot;1&quot;&gt;&lt;p style=&quot;margin:0px;margin-left:4px;&quot;&gt;+ propertySourceList: List&amp;lt;PropertySource&amp;lt;?&amp;gt;&amp;gt;&lt;/p&gt;&lt;hr size=&quot;1&quot;&gt;&lt;p style=&quot;margin:0px;margin-left:4px;&quot;&gt;+ addFirst(PropertySource&amp;lt;?&amp;gt;): void&lt;/p&gt;&lt;p style=&quot;margin:0px;margin-left:4px;&quot;&gt;+ addLast(PropertySource&amp;lt;?&amp;gt;): void&lt;/p&gt;&lt;p style=&quot;margin:0px;margin-left:4px;&quot;&gt;+ ...&lt;/p&gt;" style="verticalAlign=top;align=left;overflow=fill;fontSize=12;fontFamily=Helvetica;html=1;whiteSpace=wrap;" vertex="1" parent="1">
          <mxGeometry x="288" y="1100" width="270" height="113" as="geometry" />
        </mxCell>
        <mxCell id="s8eFsOCSGHVcZ1h7DnvA-42" value="&lt;b&gt;&lt;font style=&quot;font-size: 16px;&quot;&gt;如何实现的属性优先级？&lt;/font&gt;&lt;/b&gt;&lt;br&gt;这里维护了一个 List ，越靠前的优先级越高，因为遍历这个 List，发现存在这个值就立即返回了。" style="text;html=1;strokeColor=none;fillColor=none;align=left;verticalAlign=top;whiteSpace=wrap;rounded=0;" vertex="1" parent="1">
          <mxGeometry x="288" y="1213" width="520" height="40" as="geometry" />
        </mxCell>
      </root>
    </mxGraphModel>
  </diagram>
</mxfile>
